<?xml version="1.0" encoding="utf-8"?>
<!-- Generator: Adobe Illustrator 17.0.0, SVG Export Plug-In . SVG Version: 6.00 Build 0)  -->
<!DOCTYPE svg PUBLIC "-//W3C//DTD SVG 1.1//EN" "http://www.w3.org/Graphics/SVG/1.1/DTD/svg11.dtd" [
	<!ENTITY ns_extend "http://ns.adobe.com/Extensibility/1.0/">
	<!ENTITY ns_ai "http://ns.adobe.com/AdobeIllustrator/10.0/">
	<!ENTITY ns_graphs "http://ns.adobe.com/Graphs/1.0/">
	<!ENTITY ns_vars "http://ns.adobe.com/Variables/1.0/">
	<!ENTITY ns_imrep "http://ns.adobe.com/ImageReplacement/1.0/">
	<!ENTITY ns_sfw "http://ns.adobe.com/SaveForWeb/1.0/">
	<!ENTITY ns_custom "http://ns.adobe.com/GenericCustomNamespace/1.0/">
	<!ENTITY ns_adobe_xpath "http://ns.adobe.com/XPath/1.0/">
]>
<svg version="1.1" id="Layer_1" xmlns:x="&ns_extend;" xmlns:i="&ns_ai;" xmlns:graph="&ns_graphs;"
	 xmlns="http://www.w3.org/2000/svg" xmlns:xlink="http://www.w3.org/1999/xlink" x="0px" y="0px" width="353.746px"
	 height="353.777px" viewBox="0 0 353.746 353.777" enable-background="new 0 0 353.746 353.777" xml:space="preserve">
<metadata>
	<sfw  xmlns="&ns_sfw;">
		<slices></slices>
		<sliceSourceBounds  height="355.67" y="438.33" x="-63.62" width="491.91" bottomLeftOrigin="true"></sliceSourceBounds>
	</sfw>
</metadata>
<g>
	<g>
		<polyline fill="#00B6B2" points="0,0 0,353.777 353.746,353.777 353.746,0 0,0 		"/>
	</g>
	<path fill="#0095A8" d="M60.771,81.353H-49.356c-0.867-0.58-1.442-1.351-1.816-2.101c-0.749-1.507-0.741-2.943-0.745-2.993V8.695
		c-0.001-1.461,0.371-2.614,0.953-3.483c0.58-0.871,1.353-1.447,2.104-1.822c1.507-0.749,2.943-0.741,2.993-0.745V3.25v0.605
		l-0.019,0l-0.084,0.003c-0.075,0.004-0.188,0.012-0.33,0.028c-0.283,0.032-0.68,0.099-1.116,0.23
		c-0.877,0.263-1.884,0.777-2.541,1.766c-0.44,0.662-0.748,1.551-0.75,2.812v67.564l0.001,0.02l0.003,0.083
		c0.004,0.076,0.012,0.189,0.028,0.33c0.033,0.283,0.099,0.68,0.23,1.116c0.263,0.877,0.777,1.885,1.766,2.542
		c0.662,0.439,1.551,0.747,2.812,0.749H57.39l0.02-0.001l0.083-0.003c0.075-0.004,0.189-0.012,0.33-0.028
		c0.283-0.033,0.68-0.099,1.116-0.23c0.877-0.263,1.885-0.777,2.542-1.766c0.439-0.662,0.747-1.551,0.749-2.812V8.695l-0.001-0.02
		l-0.003-0.083c-0.004-0.075-0.012-0.188-0.028-0.33c-0.033-0.283-0.099-0.68-0.23-1.116c-0.263-0.877-0.777-1.885-1.766-2.542
		c-0.662-0.44-1.551-0.748-2.812-0.749H-45.867V3.25V2.645H57.39c0.003,0,0.006,0,0.009,0c1.456,0,2.607,0.372,3.474,0.953
		c0.871,0.58,1.447,1.353,1.822,2.104c0.749,1.507,0.742,2.943,0.745,2.993v67.564c0.002,1.461-0.371,2.614-0.953,3.484
		C62.007,80.464,61.395,80.983,60.771,81.353"/>
	<path fill="#0095A8" d="M-63.069,88.454c-0.346,0-0.662-0.095-0.904-0.258c-0.245-0.163-0.405-0.381-0.502-0.577
		c-0.193-0.395-0.186-0.72-0.189-0.77v-3.891c-0.002-0.35,0.093-0.67,0.258-0.914c0.163-0.246,0.381-0.405,0.576-0.502
		c0.396-0.193,0.72-0.186,0.771-0.189v0.605v0.605v-0.605v-0.605h13.703H60.771h13.811c0.004,0,0.007,0,0.01,0
		c0.346,0,0.662,0.095,0.904,0.258c0.246,0.163,0.405,0.38,0.503,0.576c0.192,0.396,0.185,0.72,0.188,0.771v3.891
		c0.002,0.35-0.093,0.669-0.257,0.914c-0.164,0.245-0.381,0.405-0.577,0.502c-0.396,0.193-0.72,0.186-0.771,0.189H-63.059
		C-63.062,88.454-63.065,88.454-63.069,88.454 M74.574,87.244h0.002l0.029-0.003l0.12-0.024c0.096-0.029,0.166-0.075,0.198-0.126
		c0.023-0.037,0.053-0.092,0.054-0.242v-3.883v-0.002l-0.002-0.029l-0.025-0.12c-0.029-0.096-0.074-0.166-0.125-0.198
		c-0.037-0.022-0.092-0.053-0.243-0.054H-63.052l-0.03,0.002l-0.12,0.025c-0.095,0.029-0.165,0.074-0.197,0.125
		c-0.023,0.037-0.053,0.092-0.055,0.243v3.884l0.003,0.03l0.024,0.119c0.029,0.096,0.074,0.166,0.125,0.198
		c0.037,0.023,0.093,0.053,0.243,0.055H74.574"/>
	<path fill="#0095A8" d="M-40.484,73.974c-1.456,0-2.606-0.372-3.473-0.952c-0.871-0.581-1.447-1.353-1.822-2.105
		c-0.748-1.507-0.741-2.943-0.744-2.993V14.938c-0.002-1.461,0.371-2.614,0.952-3.483c0.58-0.871,1.353-1.447,2.105-1.822
		c1.507-0.748,2.942-0.741,2.993-0.745v0.605v0.605l-0.02,0l-0.084,0.003c-0.075,0.004-0.188,0.012-0.329,0.028
		c-0.283,0.033-0.68,0.099-1.116,0.23c-0.878,0.263-1.885,0.777-2.542,1.766c-0.44,0.662-0.748,1.551-0.749,2.812v52.986v0.02
		l0.003,0.084c0.004,0.075,0.012,0.188,0.029,0.329c0.032,0.283,0.098,0.68,0.229,1.116c0.263,0.877,0.778,1.885,1.766,2.542
		c0.662,0.439,1.551,0.747,2.813,0.749h92.47h0.02L52.1,72.76c0.075-0.004,0.188-0.012,0.33-0.028
		c0.283-0.033,0.68-0.099,1.116-0.23c0.877-0.263,1.884-0.777,2.542-1.766c0.439-0.662,0.747-1.55,0.749-2.812V14.938l-0.001-0.02
		l-0.003-0.083c-0.004-0.075-0.012-0.188-0.028-0.33c-0.033-0.283-0.099-0.68-0.23-1.116c-0.263-0.877-0.777-1.884-1.766-2.541
		c-0.662-0.44-1.551-0.748-2.812-0.749h-92.47V9.493V8.888h92.47c0.003,0,0.006,0,0.009,0c1.456,0,2.607,0.372,3.474,0.953
		c0.871,0.58,1.447,1.353,1.822,2.104c0.749,1.507,0.742,2.943,0.745,2.993v52.986c0.002,1.461-0.371,2.614-0.953,3.484
		c-0.58,0.87-1.353,1.446-2.104,1.822c-1.507,0.748-2.943,0.741-2.993,0.744h-92.47C-40.477,73.974-40.48,73.974-40.484,73.974"/>
	<path fill="#0095A8" d="M199.174,339.553H89.047c-0.867-0.579-1.441-1.35-1.816-2.1c-0.748-1.507-0.741-2.943-0.744-2.993v-67.564
		c-0.002-1.461,0.371-2.614,0.952-3.483c0.58-0.871,1.353-1.447,2.105-1.822c1.507-0.749,2.942-0.742,2.993-0.745v0.605v0.605h-0.02
		l-0.084,0.004c-0.075,0.004-0.188,0.012-0.329,0.028c-0.283,0.033-0.68,0.099-1.116,0.23c-0.878,0.263-1.885,0.777-2.542,1.766
		c-0.44,0.662-0.748,1.551-0.749,2.812v67.564v0.02l0.003,0.083c0.004,0.075,0.012,0.188,0.029,0.33
		c0.032,0.283,0.098,0.68,0.229,1.116c0.264,0.877,0.778,1.885,1.766,2.542c0.662,0.439,1.551,0.747,2.813,0.749h103.256l0.02-0.001
		l0.084-0.003c0.075-0.004,0.188-0.012,0.329-0.028c0.283-0.033,0.68-0.099,1.116-0.23c0.877-0.263,1.885-0.777,2.542-1.766
		c0.439-0.662,0.747-1.551,0.749-2.812v-67.564v-0.02l-0.003-0.083c-0.005-0.076-0.012-0.188-0.029-0.33
		c-0.032-0.283-0.099-0.68-0.229-1.116c-0.264-0.877-0.778-1.885-1.766-2.542c-0.663-0.439-1.551-0.747-2.813-0.749H92.537v-0.605
		v-0.605h103.256c0.004,0,0.007,0,0.011,0c1.456,0,2.605,0.372,3.473,0.953c0.87,0.58,1.447,1.352,1.822,2.104
		c0.748,1.507,0.741,2.943,0.744,2.993v67.564c0.002,1.461-0.371,2.614-0.952,3.483C200.41,338.664,199.798,339.183,199.174,339.553
		"/>
	<path fill="#0095A8" d="M75.334,346.655c-0.345,0-0.662-0.095-0.904-0.258c-0.245-0.164-0.404-0.381-0.502-0.577
		c-0.193-0.396-0.186-0.72-0.189-0.77v-3.891c-0.002-0.35,0.093-0.67,0.258-0.914c0.164-0.246,0.381-0.405,0.577-0.503
		c0.396-0.192,0.72-0.185,0.77-0.189v0.605v0.605v-0.605v-0.605h13.703h110.127h13.812c0.003,0,0.006,0,0.009,0
		c0.346,0,0.662,0.095,0.904,0.258c0.246,0.164,0.405,0.381,0.503,0.577c0.193,0.396,0.185,0.72,0.189,0.771v3.891
		c0.001,0.349-0.093,0.669-0.258,0.913c-0.164,0.246-0.381,0.405-0.577,0.503c-0.396,0.192-0.72,0.185-0.77,0.189H75.344
		C75.341,346.655,75.338,346.655,75.334,346.655 M74.949,345.043l0.003,0.03l0.024,0.119c0.029,0.096,0.075,0.166,0.126,0.198
		c0.037,0.023,0.092,0.053,0.242,0.055h137.635l0.029-0.003l0.12-0.025c0.096-0.028,0.166-0.074,0.198-0.125
		c0.023-0.037,0.053-0.092,0.055-0.242v-3.883v-0.002l-0.003-0.03l-0.025-0.119c-0.029-0.096-0.074-0.166-0.125-0.198
		c-0.037-0.023-0.092-0.053-0.242-0.055H75.353h-0.002l-0.03,0.003l-0.119,0.025c-0.096,0.029-0.166,0.074-0.198,0.125
		c-0.023,0.037-0.053,0.092-0.055,0.243V345.043"/>
	<path fill="#0095A8" d="M97.921,332.175c-1.457,0-2.607-0.372-3.475-0.953c-0.87-0.58-1.446-1.352-1.822-2.104
		c-0.748-1.507-0.741-2.943-0.744-2.993v-52.986c-0.002-1.461,0.371-2.614,0.952-3.483c0.58-0.871,1.353-1.447,2.105-1.822
		c1.507-0.749,2.942-0.742,2.993-0.745v0.605v0.605h-0.02l-0.083,0.004c-0.076,0.004-0.189,0.012-0.33,0.028
		c-0.283,0.033-0.68,0.099-1.116,0.23c-0.877,0.263-1.885,0.777-2.542,1.766c-0.44,0.662-0.747,1.551-0.749,2.812v52.986v0.02
		l0.004,0.083c0.003,0.075,0.011,0.188,0.028,0.33c0.032,0.283,0.098,0.68,0.23,1.116c0.263,0.877,0.777,1.885,1.766,2.542
		c0.662,0.439,1.55,0.747,2.812,0.749h92.47l0.02-0.001l0.083-0.003c0.076-0.004,0.189-0.012,0.33-0.028
		c0.283-0.033,0.68-0.099,1.116-0.23c0.877-0.263,1.885-0.777,2.542-1.766c0.439-0.662,0.747-1.551,0.749-2.812v-52.986v-0.02
		l-0.004-0.083c-0.004-0.076-0.012-0.188-0.028-0.33c-0.032-0.283-0.099-0.68-0.23-1.116c-0.263-0.877-0.777-1.885-1.766-2.542
		c-0.662-0.439-1.55-0.747-2.812-0.749H97.93v-0.605v-0.605h92.47c0.004,0,0.007,0,0.011,0c1.456,0,2.605,0.372,3.472,0.953
		c0.871,0.58,1.447,1.352,1.822,2.104c0.749,1.507,0.742,2.943,0.745,2.993v52.986c0.002,1.461-0.371,2.614-0.952,3.483
		c-0.58,0.871-1.353,1.447-2.105,1.822c-1.507,0.749-2.942,0.741-2.993,0.745H97.93C97.927,332.175,97.924,332.175,97.921,332.175"
		/>
	<path fill="#6BC9C7" d="M240.155,337.441c-2.817,0-4.987-0.713-6.62-1.804c-1.637-1.09-2.723-2.543-3.439-3.976
		c-1.429-2.868-1.422-5.665-1.425-5.715v-66.375c-0.002-2.822,0.711-4.996,1.803-6.631c1.091-1.637,2.544-2.723,3.977-3.439
		c2.868-1.429,5.665-1.422,5.715-1.425v0.605v0.605l-0.055,0.001l-0.183,0.007c-0.162,0.009-0.401,0.026-0.698,0.06
		c-0.594,0.068-1.421,0.207-2.336,0.481c-1.834,0.55-3.99,1.639-5.413,3.776c-0.95,1.428-1.598,3.337-1.6,5.96V307.1h-0.741v1.21
		h0.741v5.179h-0.741v1.21h0.741v4.725h-0.741v1.21h0.741v4.725h-0.741v1.21h0.777c0.008,0.095,0.019,0.199,0.032,0.312
		c0.068,0.594,0.206,1.422,0.481,2.337c0.55,1.834,1.639,3.99,3.776,5.413c1.428,0.95,3.337,1.598,5.96,1.6h28.099l0.055-0.001
		l0.183-0.007c0.162-0.009,0.4-0.026,0.698-0.06c0.594-0.069,1.421-0.207,2.335-0.481c1.835-0.551,3.991-1.639,5.414-3.776
		c0.873-1.312,1.491-3.031,1.587-5.337h0.754v-1.21h-0.741v-4.725h0.741v-1.21h-0.741v-4.725h0.741v-1.21h-0.741v-5.179h0.741v-1.21
		h-0.741v-47.529l-0.001-0.055l-0.007-0.183c-0.009-0.162-0.026-0.4-0.06-0.697c-0.068-0.595-0.207-1.422-0.481-2.337
		c-0.55-1.834-1.639-3.99-3.776-5.413c-1.428-0.95-3.337-1.598-5.96-1.6h-28.099v-0.605v-0.605h28.099c0.004,0,0.007,0,0.011,0
		c2.817,0,4.987,0.713,6.62,1.803c1.637,1.091,2.723,2.544,3.439,3.977c1.429,2.868,1.422,5.665,1.425,5.715v66.375
		c0.002,2.822-0.712,4.996-1.803,6.631c-1.091,1.636-2.544,2.723-3.977,3.439c-2.868,1.429-5.665,1.421-5.715,1.425h-28.099
		C240.162,337.441,240.159,337.441,240.155,337.441"/>
	<path fill="#6BC9C7" d="M240.552,331.941c-2.648,0-4.439-1.023-5.531-2.319c-0.844-0.995-1.296-2.118-1.543-3.053h1.258
		c0.229,0.74,0.604,1.564,1.206,2.269c0.705,0.817,1.695,1.506,3.222,1.774v0.28h1.21v-0.164c0.07,0.002,0.141,0.003,0.212,0.003
		h4.023v0.161h1.21v-0.161h3.328v0.161h1.21v-0.161h3.781v0.161h1.21v-0.161h3.781v0.161h1.21v-0.161h3.328v1.059h1.21v-1.059h3.388
		h0.024l0.095-0.004c0.066-0.003,0.159-0.009,0.274-0.019v0.184h1.21v-0.391c0.053-0.013,0.107-0.027,0.161-0.042
		c1.015-0.273,2.232-0.816,3.12-1.86c0.449-0.528,0.825-1.185,1.059-2.03h1.249c-0.268,1.16-0.768,2.092-1.387,2.816
		c-0.74,0.866-1.637,1.436-2.492,1.811c-1.712,0.747-3.266,0.743-3.313,0.745h-27.679
		C240.575,331.941,240.563,331.941,240.552,331.941"/>
	<polyline fill="#6BC9C7" points="279.291,308.31 278.55,308.31 275.767,308.31 275.767,307.705 274.557,307.705 274.557,308.31 
		269.868,308.31 269.868,308.159 268.658,308.159 268.658,308.31 264.877,308.31 264.877,307.787 263.667,307.787 263.667,308.31 
		260.339,308.31 260.339,307.787 259.129,307.787 259.129,308.31 255.348,308.31 255.348,307.787 254.138,307.787 254.138,308.31 
		250.357,308.31 250.357,307.705 249.147,307.705 249.147,308.31 245.819,308.31 245.819,307.705 244.609,307.705 244.609,308.31 
		240.374,308.31 240.374,307.787 239.164,307.787 239.164,308.31 234.929,308.31 234.929,308.159 233.719,308.159 233.719,308.31 
		229.881,308.31 229.14,308.31 229.14,307.1 229.881,307.1 278.55,307.1 279.291,307.1 279.291,308.31 	"/>
	<path fill="#6BC9C7" d="M279.291,314.699h-0.741h-2.783v-1.21h2.783h0.741V314.699 M274.557,314.699h-4.689v-1.21h4.689V314.699
		 M268.658,314.699h-3.781v-1.21h3.781V314.699 M263.667,314.699h-3.328v-1.21h3.328V314.699 M259.129,314.699h-3.781v-1.21h3.781
		V314.699 M254.138,314.699h-3.781v-1.21h3.781V314.699 M249.147,314.699h-3.328v-1.21h3.328V314.699 M244.609,314.699h-4.235v-1.21
		h4.235V314.699 M239.164,314.699h-4.235v-1.21h4.235V314.699 M233.719,314.699h-3.838h-0.741v-1.21h0.741h3.838V314.699"/>
	<path fill="#6BC9C7" d="M279.291,320.634h-0.741h-2.783v-1.21h2.783h0.741V320.634 M274.557,320.634h-4.689v-1.21h4.689V320.634
		 M268.658,320.634h-3.781v-1.21h3.781V320.634 M263.667,320.634h-3.328v-1.21h3.328V320.634 M259.129,320.634h-3.781v-1.21h3.781
		V320.634 M254.138,320.634h-3.781v-1.21h3.781V320.634 M249.147,320.634h-3.328v-1.21h3.328V320.634 M244.609,320.634h-4.235v-1.21
		h4.235V320.634 M239.164,320.634h-4.235v-1.21h4.235V320.634 M233.719,320.634h-3.838h-0.741v-1.21h0.741h3.838V320.634"/>
	<path fill="#6BC9C7" d="M279.291,326.569h-0.754h-3.08h-1.249h-4.34v-1.21h4.689v1.058h1.21v-1.058h2.783h0.741V326.569
		 M268.658,326.569h-3.781v-1.21h3.781V326.569 M263.667,326.569h-3.328v-1.21h3.328V326.569 M259.129,326.569h-3.781v-1.21h3.781
		V326.569 M254.138,326.569h-3.781v-1.21h3.781V326.569 M249.147,326.569h-3.328v-1.21h3.328V326.569 M244.609,326.569h-4.235v-1.21
		h4.235V326.569 M239.164,326.569h-4.428h-1.258h-3.561h-0.777v-1.21h0.741h3.838v0.605h1.21v-0.605h4.235V326.569"/>
	<path fill="#6BC9C7" d="M277.309,305.633H231.94V261.74v-0.605h45.369V305.633 M233.15,262.345v42.078h42.95v-42.078H233.15
		 M232.545,261.74v0.605V261.74"/>
	<polyline fill="#6BC9C7" points="234.929,325.964 233.719,325.964 233.719,325.359 233.719,320.634 233.719,319.424 
		233.719,314.699 233.719,313.489 233.719,308.31 233.719,308.159 234.929,308.159 234.929,308.31 234.929,313.489 234.929,314.699 
		234.929,319.424 234.929,320.634 234.929,325.359 234.929,325.964 	"/>
	<polyline fill="#6BC9C7" points="240.374,330.892 239.164,330.892 239.164,330.612 239.164,326.569 239.164,325.359 
		239.164,320.634 239.164,319.424 239.164,314.699 239.164,313.489 239.164,308.31 239.164,307.787 240.374,307.787 240.374,308.31 
		240.374,313.489 240.374,314.699 240.374,319.424 240.374,320.634 240.374,325.359 240.374,326.569 240.374,330.728 
		240.374,330.892 	"/>
	<polyline fill="#6BC9C7" points="245.819,330.892 244.609,330.892 244.609,330.731 244.609,326.569 244.609,325.359 
		244.609,320.634 244.609,319.424 244.609,314.699 244.609,313.489 244.609,308.31 244.609,307.705 245.819,307.705 245.819,308.31 
		245.819,313.489 245.819,314.699 245.819,319.424 245.819,320.634 245.819,325.359 245.819,326.569 245.819,330.731 
		245.819,330.892 	"/>
	<polyline fill="#6BC9C7" points="250.357,330.892 249.147,330.892 249.147,330.731 249.147,326.569 249.147,325.359 
		249.147,320.634 249.147,319.424 249.147,314.699 249.147,313.489 249.147,308.31 249.147,307.705 250.357,307.705 250.357,308.31 
		250.357,313.489 250.357,314.699 250.357,319.424 250.357,320.634 250.357,325.359 250.357,326.569 250.357,330.731 
		250.357,330.892 	"/>
	<polyline fill="#6BC9C7" points="255.348,330.892 254.138,330.892 254.138,330.731 254.138,326.569 254.138,325.359 
		254.138,320.634 254.138,319.424 254.138,314.699 254.138,313.489 254.138,308.31 254.138,307.787 255.348,307.787 255.348,308.31 
		255.348,313.489 255.348,314.699 255.348,319.424 255.348,320.634 255.348,325.359 255.348,326.569 255.348,330.731 
		255.348,330.892 	"/>
	<polyline fill="#6BC9C7" points="260.339,330.892 259.129,330.892 259.129,330.731 259.129,326.569 259.129,325.359 
		259.129,320.634 259.129,319.424 259.129,314.699 259.129,313.489 259.129,308.31 259.129,307.787 260.339,307.787 260.339,308.31 
		260.339,313.489 260.339,314.699 260.339,319.424 260.339,320.634 260.339,325.359 260.339,326.569 260.339,330.731 
		260.339,330.892 	"/>
	<polyline fill="#6BC9C7" points="264.877,331.79 263.667,331.79 263.667,330.731 263.667,326.569 263.667,325.359 263.667,320.634 
		263.667,319.424 263.667,314.699 263.667,313.489 263.667,308.31 263.667,307.787 264.877,307.787 264.877,308.31 264.877,313.489 
		264.877,314.699 264.877,319.424 264.877,320.634 264.877,325.359 264.877,326.569 264.877,330.731 264.877,331.79 	"/>
	<polyline fill="#6BC9C7" points="269.868,330.892 268.658,330.892 268.658,330.708 268.658,326.569 268.658,325.359 
		268.658,320.634 268.658,319.424 268.658,314.699 268.658,313.489 268.658,308.31 268.658,308.159 269.868,308.159 269.868,308.31 
		269.868,313.489 269.868,314.699 269.868,319.424 269.868,320.634 269.868,325.359 269.868,326.569 269.868,330.501 
		269.868,330.892 	"/>
	<polyline fill="#6BC9C7" points="275.767,326.417 274.557,326.417 274.557,325.359 274.557,320.634 274.557,319.424 
		274.557,314.699 274.557,313.489 274.557,308.31 274.557,307.705 275.767,307.705 275.767,308.31 275.767,313.489 275.767,314.699 
		275.767,319.424 275.767,320.634 275.767,325.359 275.767,326.417 	"/>
	<path fill="#6BC9C7" d="M22.901,197.312h-50.483c-0.011-0.111-0.017-0.204-0.02-0.275l-0.005-0.125l-0.001-0.034v-0.776H22.91
		v0.776C22.91,197.026,22.906,197.171,22.901,197.312"/>
	<path fill="#6BC9C7" d="M22.91,109.956h-50.518v-0.425c0-0.273,0.011-0.535,0.03-0.785h50.423c0.007,0.049,0.013,0.097,0.018,0.143
		c0.024,0.206,0.035,0.371,0.041,0.483l0.005,0.125l0.001,0.034V109.956"/>
	<path fill="#6BC9C7" d="M20.336,189.997h-45.37V117.45v-0.605h45.37V189.997 M-23.824,118.055v70.732h42.95v-70.732H-23.824
		 M-24.429,117.45v0.605V117.45"/>
	<path fill="#6BC9C7" d="M-20.508,205.197c-2.024,0-3.6-0.514-4.786-1.307c-1.19-0.793-1.979-1.849-2.496-2.885
		c-1.032-2.074-1.025-4.077-1.028-4.127v-87.347c-0.002-2.028,0.513-3.607,1.307-4.795c0.793-1.19,1.849-1.979,2.885-2.496
		c2.074-1.031,4.076-1.024,4.127-1.028v0.605v0.605l-0.034,0.001l-0.126,0.005c-0.111,0.006-0.276,0.017-0.483,0.041
		c-0.412,0.048-0.988,0.144-1.624,0.335c-1.276,0.383-2.762,1.136-3.738,2.603c-0.555,0.835-0.963,1.91-1.074,3.339
		c-0.019,0.25-0.03,0.512-0.03,0.785v0.425v86.146v0.776l0.001,0.034l0.005,0.125c0.003,0.071,0.009,0.164,0.02,0.275
		c0.005,0.064,0.012,0.133,0.021,0.208c0.047,0.413,0.144,0.989,0.334,1.625c0.383,1.276,1.137,2.762,2.604,3.738
		c0.981,0.652,2.295,1.102,4.124,1.104h36.3l0.034-0.001l0.125-0.005c0.112-0.006,0.277-0.017,0.483-0.041
		c0.413-0.048,0.989-0.144,1.625-0.334c1.276-0.383,2.762-1.137,3.738-2.604c0.599-0.902,1.028-2.085,1.095-3.69
		c0.005-0.141,0.009-0.286,0.009-0.434v-0.776v-86.146v-0.425l-0.001-0.034l-0.005-0.125c-0.006-0.112-0.017-0.277-0.041-0.483
		c-0.005-0.046-0.011-0.094-0.018-0.143c-0.052-0.398-0.147-0.917-0.317-1.482c-0.382-1.276-1.136-2.762-2.603-3.738
		c-0.981-0.652-2.295-1.102-4.124-1.104h-36.3v-0.605v-0.605h36.3c0.003,0,0.007,0,0.011,0c2.023,0,3.598,0.515,4.784,1.307
		c1.19,0.793,1.978,1.85,2.496,2.885c1.032,2.074,1.024,4.077,1.028,4.127v87.347c0.002,2.028-0.513,3.607-1.307,4.795
		c-0.793,1.19-1.849,1.979-2.885,2.496c-2.074,1.032-4.077,1.024-4.127,1.028h-36.3C-20.502,205.197-20.505,205.197-20.508,205.197"
		/>
	<path fill="#6BC9C7" d="M215.455,141.232h-50.483c-0.01-0.111-0.016-0.204-0.02-0.275l-0.005-0.125v-0.034v-0.776h50.517v0.776
		C215.464,140.946,215.461,141.09,215.455,141.232"/>
	<path fill="#6BC9C7" d="M215.464,53.875h-50.517v-0.424c0-0.274,0.01-0.535,0.03-0.786H215.4c0.006,0.05,0.012,0.097,0.018,0.143
		c0.023,0.206,0.035,0.372,0.041,0.483l0.005,0.125v0.035V53.875"/>
	<path fill="#6BC9C7" d="M212.89,133.917h-45.369V61.37v-0.605h45.369V133.917 M168.731,61.975v70.732h42.949V61.975H168.731
		 M168.126,61.37v0.605V61.37"/>
	<path fill="#6BC9C7" d="M172.046,149.116c-2.023,0-3.599-0.514-4.785-1.307c-1.19-0.792-1.979-1.849-2.496-2.884
		c-1.032-2.074-1.025-4.077-1.028-4.127V53.451c-0.002-2.028,0.513-3.607,1.307-4.795c0.793-1.19,1.849-1.979,2.884-2.496
		c2.075-1.032,4.077-1.025,4.128-1.028v0.605v0.605h-0.035l-0.125,0.005c-0.111,0.006-0.277,0.018-0.483,0.042
		c-0.412,0.047-0.989,0.143-1.624,0.334c-1.276,0.383-2.762,1.136-3.738,2.604c-0.555,0.834-0.963,1.91-1.074,3.338
		c-0.02,0.251-0.03,0.512-0.03,0.786v0.424v86.147v0.776v0.034l0.005,0.125c0.004,0.071,0.01,0.164,0.02,0.275
		c0.006,0.063,0.013,0.133,0.022,0.208c0.047,0.413,0.143,0.989,0.334,1.624c0.383,1.276,1.136,2.762,2.604,3.739
		c0.981,0.652,2.295,1.102,4.124,1.103h36.3h0.034l0.125-0.005c0.111-0.006,0.277-0.018,0.483-0.042
		c0.413-0.047,0.989-0.143,1.625-0.334c1.275-0.383,2.762-1.136,3.738-2.604c0.599-0.901,1.027-2.084,1.094-3.689
		c0.006-0.142,0.009-0.286,0.009-0.434v-0.776V53.875v-0.424v-0.035l-0.005-0.125c-0.006-0.111-0.018-0.277-0.041-0.483
		c-0.006-0.046-0.012-0.093-0.018-0.143c-0.053-0.398-0.147-0.916-0.317-1.481c-0.383-1.276-1.136-2.762-2.604-3.738
		c-0.981-0.653-2.295-1.102-4.123-1.104h-36.3v-0.605v-0.605h36.3c0.003,0,0.007,0,0.01,0c2.023,0,3.598,0.514,4.785,1.307
		c1.189,0.793,1.978,1.849,2.495,2.884c1.032,2.075,1.025,4.077,1.028,4.128v87.347c0.002,2.028-0.512,3.606-1.306,4.794
		c-0.794,1.19-1.85,1.979-2.885,2.496c-2.074,1.032-4.077,1.025-4.127,1.028h-36.3C172.052,149.116,172.049,149.116,172.046,149.116
		"/>
	<path fill="#A59368" d="M127.531,147.617H61.214h-0.606v-44.381h66.923V147.617 M61.819,146.407h64.502v-41.961H61.819V146.407"/>
	<path fill="#A59368" d="M53.444,151.116c-2.023,0-3.598-0.514-4.785-1.307c-1.189-0.793-1.978-1.849-2.495-2.884
		c-1.032-2.074-1.025-4.077-1.028-4.128l0,0l0,0v-34.741c-0.002-2.028,0.512-3.607,1.307-4.795c0.792-1.19,1.849-1.979,2.884-2.496
		c2.074-1.032,4.077-1.025,4.127-1.028h81.848c0.004,0,0.007,0,0.011,0c2.023,0,3.598,0.514,4.784,1.307
		c1.19,0.793,1.979,1.849,2.496,2.884c1.031,2.075,1.024,4.077,1.028,4.128v34.741c0.001,2.029-0.513,3.607-1.307,4.796
		c-0.793,1.189-1.85,1.978-2.885,2.495c-2.074,1.032-4.077,1.025-4.127,1.028H53.454C53.451,151.116,53.447,151.116,53.444,151.116
		 M46.346,142.797v0.035l0.005,0.125c0.006,0.111,0.018,0.277,0.042,0.483c0.047,0.413,0.143,0.989,0.334,1.624
		c0.383,1.276,1.136,2.763,2.603,3.739c0.982,0.652,2.296,1.101,4.124,1.103h81.848h0.034l0.125-0.005
		c0.112-0.006,0.277-0.018,0.483-0.042c0.413-0.047,0.989-0.143,1.625-0.334c1.276-0.383,2.762-1.136,3.738-2.604
		c0.652-0.981,1.102-2.295,1.104-4.124v-34.741l-0.001-0.035l-0.005-0.125c-0.006-0.111-0.017-0.276-0.041-0.483
		c-0.048-0.412-0.144-0.989-0.335-1.624c-0.383-1.276-1.136-2.762-2.603-3.738c-0.981-0.652-2.295-1.102-4.124-1.104H53.454
		l-0.034,0.001l-0.125,0.005c-0.111,0.005-0.277,0.017-0.483,0.041c-0.413,0.048-0.989,0.144-1.624,0.334
		c-1.277,0.383-2.762,1.137-3.739,2.604c-0.652,0.981-1.102,2.295-1.103,4.124V142.797"/>
	<path fill="#A59368" d="M134.921,130.832c-2.986,0-5.406-2.42-5.406-5.405c0-2.986,2.42-5.406,5.406-5.406
		c2.985,0,5.405,2.42,5.405,5.406l0,0l0,0l0,0C140.326,128.412,137.906,130.832,134.921,130.832 M134.921,121.231
		c-1.161,0-2.206,0.469-2.967,1.229c-0.76,0.761-1.229,1.806-1.229,2.967c0,1.16,0.469,2.205,1.229,2.966
		c0.761,0.761,1.806,1.229,2.967,1.229c1.16,0,2.205-0.468,2.966-1.229c0.761-0.761,1.229-1.806,1.229-2.966
		c0-1.161-0.468-2.206-1.229-2.967C137.126,121.7,136.081,121.231,134.921,121.231"/>
	<polyline fill="#A59368" points="54.014,132.414 52.804,132.414 52.804,118.44 54.014,118.44 54.014,132.414 	"/>
	<path fill="#6BC9C7" d="M382.617,300.071H316.3h-0.605V255.69h66.922V300.071 M316.905,298.861h64.502V256.9h-64.502V298.861"/>
	<path fill="#6BC9C7" d="M308.532,303.57c-2.024,0-3.6-0.514-4.786-1.307c-1.19-0.793-1.979-1.849-2.496-2.884
		c-1.031-2.075-1.024-4.077-1.028-4.128l0,0l0,0V260.51c-0.001-2.028,0.513-3.607,1.307-4.795c0.793-1.19,1.85-1.979,2.885-2.496
		c2.074-1.032,4.077-1.025,4.127-1.028h81.847c0.003,0,0.007,0,0.01,0c2.023,0,3.599,0.514,4.786,1.307
		c1.189,0.792,1.978,1.849,2.495,2.884c1.032,2.075,1.025,4.077,1.028,4.128v34.741c0.002,2.028-0.512,3.607-1.307,4.795
		c-0.793,1.19-1.849,1.979-2.884,2.496c-2.074,1.032-4.077,1.025-4.128,1.028h-81.847C308.538,303.57,308.535,303.57,308.532,303.57
		 M301.432,295.251l0.001,0.035l0.005,0.125c0.006,0.111,0.017,0.276,0.041,0.483c0.048,0.412,0.144,0.989,0.335,1.624
		c0.382,1.276,1.136,2.762,2.603,3.738c0.981,0.653,2.295,1.102,4.124,1.104h81.847l0.035-0.001l0.125-0.005
		c0.111-0.005,0.277-0.017,0.483-0.041c0.413-0.047,0.989-0.144,1.624-0.334c1.276-0.383,2.762-1.137,3.739-2.604
		c0.652-0.981,1.101-2.295,1.103-4.124V260.51v-0.035l-0.005-0.125c-0.006-0.111-0.018-0.277-0.042-0.483
		c-0.047-0.412-0.143-0.989-0.334-1.624c-0.383-1.276-1.136-2.762-2.603-3.738c-0.982-0.653-2.296-1.102-4.125-1.104h-81.847h-0.034
		l-0.125,0.005c-0.112,0.006-0.277,0.018-0.483,0.042c-0.413,0.047-0.989,0.143-1.625,0.334c-1.276,0.383-2.762,1.136-3.738,2.604
		c-0.652,0.981-1.102,2.295-1.104,4.124V295.251"/>
	<polyline fill="#6BC9C7" points="309.101,284.868 307.891,284.868 307.891,270.893 309.101,270.893 309.101,284.868 	"/>
	<path fill="#A59368" d="M317.712,47.88h-66.317h-0.605V3.499h66.922V47.88 M252,46.67h64.502V4.709H252V46.67"/>
	<path fill="#A59368" d="M243.625,51.379c-2.022,0-3.598-0.514-4.784-1.307c-1.19-0.793-1.979-1.849-2.496-2.884
		c-1.031-2.075-1.024-4.077-1.028-4.128l0,0l0,0V8.319c-0.001-2.028,0.513-3.607,1.307-4.795c0.793-1.19,1.85-1.979,2.885-2.496
		c2.074-1.032,4.077-1.025,4.127-1.028h81.848c0.003,0,0.007,0,0.01,0c2.023,0,3.598,0.514,4.785,1.307
		c1.189,0.793,1.978,1.849,2.495,2.885c1.032,2.074,1.025,4.077,1.028,4.127V43.06c0.002,2.028-0.512,3.607-1.307,4.795
		c-0.793,1.19-1.849,1.979-2.884,2.496c-2.074,1.032-4.077,1.025-4.127,1.028h-81.848C243.632,51.379,243.629,51.379,243.625,51.379
		 M236.527,43.06l0.001,0.035l0.005,0.125c0.006,0.111,0.017,0.276,0.041,0.483c0.048,0.412,0.144,0.989,0.335,1.624
		c0.383,1.276,1.136,2.762,2.603,3.739c0.981,0.652,2.295,1.101,4.124,1.103h81.848l0.034-0.001l0.125-0.005
		c0.111-0.005,0.277-0.017,0.483-0.041c0.413-0.047,0.989-0.144,1.624-0.334c1.277-0.383,2.762-1.137,3.739-2.604
		c0.652-0.981,1.102-2.295,1.103-4.124V8.319V8.284l-0.005-0.125c-0.006-0.111-0.018-0.277-0.042-0.483
		c-0.047-0.413-0.143-0.989-0.334-1.624c-0.383-1.276-1.136-2.762-2.603-3.738c-0.982-0.652-2.296-1.102-4.124-1.104h-81.848
		l-0.034,0l-0.125,0.005c-0.112,0.006-0.277,0.018-0.483,0.041c-0.413,0.048-0.989,0.144-1.625,0.334
		c-1.276,0.383-2.762,1.136-3.738,2.604c-0.652,0.981-1.102,2.295-1.104,4.124V43.06"/>
	<path fill="#A59368" d="M325.102,31.095c-2.985,0-5.405-2.42-5.405-5.405c0-2.986,2.42-5.406,5.405-5.406
		c2.986,0,5.406,2.42,5.406,5.406l0,0l0,0l0,0C330.508,28.675,328.088,31.095,325.102,31.095 M325.102,21.494
		c-1.16,0-2.205,0.469-2.966,1.229c-0.761,0.761-1.229,1.806-1.229,2.967c0,1.16,0.468,2.205,1.229,2.966
		c0.761,0.761,1.806,1.229,2.966,1.229c1.161,0,2.206-0.468,2.967-1.229c0.761-0.761,1.229-1.806,1.229-2.966
		c0-1.161-0.468-2.206-1.229-2.967C327.308,21.963,326.263,21.494,325.102,21.494"/>
	<polyline fill="#A59368" points="244.196,32.677 242.986,32.677 242.986,18.702 244.196,18.702 244.196,32.677 	"/>
	<path fill="#6BC9C7" d="M353.823,147.906c-1.456,0-2.607-0.372-3.474-0.952c-0.871-0.58-1.447-1.353-1.822-2.105
		c-0.748-1.507-0.741-2.942-0.744-2.993V45.843c-0.002-1.461,0.37-2.614,0.952-3.484c0.58-0.87,1.353-1.446,2.104-1.822
		c1.508-0.748,2.943-0.741,2.993-0.744v0.605v0.605h-0.02l-0.083,0.003c-0.075,0.004-0.188,0.012-0.33,0.029
		c-0.283,0.032-0.679,0.098-1.116,0.229c-0.877,0.264-1.884,0.778-2.541,1.766c-0.44,0.663-0.748,1.551-0.75,2.813v96.013
		l0.001,0.02l0.003,0.084c0.004,0.075,0.012,0.188,0.028,0.329c0.033,0.283,0.099,0.68,0.23,1.116
		c0.263,0.877,0.777,1.885,1.766,2.542c0.662,0.44,1.551,0.748,2.812,0.749h43.197h0.02l0.084-0.004
		c0.075-0.003,0.188-0.011,0.33-0.028c0.283-0.032,0.679-0.098,1.116-0.229c0.877-0.264,1.884-0.778,2.541-1.766
		c0.44-0.663,0.748-1.551,0.749-2.813V45.843v-0.02l-0.003-0.084c-0.004-0.075-0.012-0.188-0.028-0.33
		c-0.033-0.282-0.099-0.679-0.23-1.115c-0.264-0.877-0.778-1.885-1.766-2.542c-0.662-0.44-1.551-0.748-2.813-0.749h-43.197v-0.605
		v-0.605h43.197c0.004,0,0.007,0,0.011,0c1.456,0,2.606,0.372,3.473,0.952c0.87,0.58,1.447,1.353,1.822,2.105
		c0.748,1.507,0.741,2.942,0.744,2.993v96.013c0.002,1.461-0.371,2.614-0.952,3.484c-0.58,0.87-1.353,1.446-2.104,1.822
		c-1.508,0.748-2.943,0.741-2.994,0.744h-43.197C353.829,147.906,353.826,147.906,353.823,147.906"/>
	<path fill="#6BC9C7" d="M357.988,139.013c-1.456,0-2.606-0.373-3.473-0.953c-0.871-0.58-1.447-1.353-1.822-2.104
		c-0.748-1.507-0.741-2.943-0.744-2.993V60c-0.002-1.461,0.37-2.614,0.952-3.484c0.58-0.87,1.353-1.447,2.105-1.822
		c1.507-0.748,2.942-0.741,2.993-0.744v0.605v0.605h-0.02l-0.084,0.003c-0.075,0.004-0.188,0.012-0.33,0.029
		c-0.282,0.032-0.679,0.099-1.115,0.229c-0.878,0.264-1.885,0.778-2.542,1.766c-0.44,0.662-0.748,1.551-0.749,2.813v72.963v0.02
		l0.003,0.083c0.004,0.075,0.012,0.189,0.029,0.33c0.032,0.283,0.098,0.68,0.229,1.116c0.263,0.877,0.778,1.885,1.766,2.542
		c0.662,0.439,1.551,0.747,2.813,0.749h34.864l0.02-0.001l0.084-0.003c0.075-0.004,0.188-0.012,0.329-0.028
		c0.283-0.033,0.68-0.099,1.116-0.23c0.877-0.263,1.885-0.777,2.542-1.766c0.439-0.662,0.747-1.551,0.749-2.812V60v-0.02
		l-0.004-0.084c-0.004-0.075-0.012-0.188-0.028-0.329c-0.033-0.283-0.099-0.68-0.229-1.116c-0.264-0.878-0.778-1.885-1.766-2.542
		c-0.663-0.44-1.551-0.747-2.813-0.749h-34.864v-0.605V53.95h34.864c0.004,0,0.007,0,0.011,0c1.456,0,2.605,0.372,3.473,0.952
		c0.87,0.58,1.446,1.353,1.822,2.105c0.748,1.507,0.741,2.942,0.744,2.993v72.963c0.002,1.461-0.371,2.614-0.952,3.483
		c-0.581,0.871-1.353,1.447-2.105,1.822c-1.507,0.749-2.943,0.742-2.993,0.745h-34.864
		C357.995,139.013,357.991,139.013,357.988,139.013"/>
	<path fill="#A59368" d="M-18.909,330.062c-2.974,0-5.263-0.752-6.984-1.902c-1.725-1.149-2.87-2.681-3.625-4.192
		c-1.508-3.026-1.501-5.98-1.504-6.03l0,0l0,0v-24.026c0-0.832,0.058-1.611,0.168-2.339c0.155,0.983,0.457,2.277,1.042,3.625v22.74
		l0.001,0.058l0.008,0.195c0.009,0.172,0.027,0.425,0.063,0.741c0.073,0.629,0.219,1.507,0.51,2.477
		c0.584,1.944,1.738,4.233,4.008,5.745c1.517,1.009,3.544,1.696,6.324,1.698h73.886l0.059-0.001l0.195-0.008
		c0.172-0.009,0.425-0.027,0.74-0.063c0.63-0.073,1.507-0.219,2.477-0.51c1.945-0.584,4.234-1.738,5.745-4.008
		c1.009-1.517,1.697-3.544,1.698-6.324v-22.352c0.483-0.994,0.846-2.138,1.043-3.448c0.167,1.053,0.166,1.75,0.167,1.774v24.026
		c0.002,2.979-0.75,5.271-1.901,6.995c-1.15,1.725-2.682,2.87-4.193,3.625c-3.025,1.508-5.979,1.501-6.03,1.504h-73.886
		C-18.902,330.062-18.905,330.062-18.909,330.062"/>
	<path fill="#00B6B2" d="M54.988,300.713h-73.886c-2.78-0.002-4.807-0.69-6.324-1.699c-2.27-1.511-3.424-3.8-4.008-5.745
		c-0.291-0.969-0.437-1.847-0.51-2.477c-0.036-0.315-0.054-0.568-0.063-0.74l-0.008-0.195l-0.001-0.059v-24.025
		c0.002-2.78,0.689-4.808,1.698-6.324c1.512-2.27,3.8-3.424,5.745-4.008c0.97-0.291,1.847-0.437,2.478-0.51
		c0.314-0.036,0.568-0.054,0.74-0.063l0.194-0.008l0.059-0.001h73.886c2.78,0.002,4.808,0.689,6.324,1.698
		c2.27,1.512,3.425,3.8,4.009,5.745c0.291,0.97,0.437,1.847,0.509,2.477c0.037,0.315,0.055,0.569,0.064,0.741l0.007,0.194
		l0.001,0.059v24.025c-0.001,2.781-0.689,4.808-1.698,6.324c-1.511,2.27-3.8,3.425-5.745,4.009c-0.97,0.291-1.847,0.437-2.477,0.51
		c-0.315,0.036-0.568,0.054-0.74,0.063l-0.195,0.008L54.988,300.713 M-6.309,257.187c-0.051,0.003-1.873-0.004-3.768,0.938
		c-0.945,0.472-1.911,1.194-2.637,2.282c-0.726,1.087-1.196,2.531-1.194,4.379v25.012c0.003,0.051-0.004,1.874,0.938,3.768
		c0.472,0.945,1.193,1.911,2.282,2.637c1.085,0.725,2.525,1.194,4.368,1.194c0.004,0,0.007,0,0.011,0h43.772
		c0.05-0.003,1.873,0.004,3.767-0.938c0.946-0.472,1.912-1.193,2.637-2.282c0.727-1.087,1.196-2.531,1.195-4.379v-25.012
		c-0.003-0.051,0.004-1.873-0.938-3.768c-0.472-0.945-1.194-1.911-2.282-2.637c-1.086-0.725-2.526-1.194-4.37-1.194
		c-0.003,0-0.006,0-0.009,0H-6.309v0.605v0.605h43.772c1.649,0.002,2.828,0.407,3.708,0.991c1.315,0.875,1.992,2.209,2.337,3.359
		c0.172,0.572,0.259,1.091,0.302,1.463c0.021,0.185,0.031,0.334,0.037,0.434l0.004,0.112l0.001,0.03v25.012
		c-0.002,1.649-0.407,2.828-0.991,3.708c-0.875,1.316-2.21,1.993-3.359,2.338c-0.572,0.172-1.091,0.258-1.463,0.301
		c-0.186,0.022-0.334,0.032-0.435,0.037l-0.111,0.005h-0.03H-6.309c-1.649-0.002-2.828-0.406-3.708-0.991
		c-1.315-0.875-1.993-2.209-2.338-3.359c-0.171-0.572-0.258-1.091-0.301-1.462c-0.021-0.186-0.032-0.335-0.037-0.435l-0.004-0.112
		l-0.001-0.03v-25.012c0.002-1.649,0.406-2.828,0.991-3.708c0.875-1.315,2.209-1.993,3.359-2.338
		c0.572-0.171,1.091-0.258,1.463-0.301c0.185-0.021,0.334-0.032,0.434-0.037l0.112-0.004l0.03-0.001v-0.605V257.187 M56.223,281.518
		L56.223,281.518c2.151-0.001,3.895-1.745,3.896-3.897c-0.001-2.152-1.745-3.896-3.896-3.896c-2.152,0-3.896,1.744-3.897,3.896
		C52.327,279.773,54.071,281.517,56.223,281.518 M56.223,281.518v-0.605v-0.605c-1.484-0.003-2.684-1.203-2.687-2.687
		c0.003-1.483,1.203-2.683,2.687-2.686c1.483,0.003,2.683,1.203,2.686,2.686c-0.003,1.484-1.203,2.684-2.686,2.687v0.605V281.518
		L56.223,281.518"/>
	<path fill="#A59368" d="M-18.909,301.923c-2.974,0-5.263-0.752-6.984-1.902c-1.725-1.149-2.87-2.682-3.625-4.192
		c-0.105-0.211-0.203-0.422-0.294-0.631c-0.585-1.348-0.887-2.642-1.042-3.625c-0.167-1.054-0.166-1.75-0.168-1.775l0,0l0,0v-24.025
		c-0.002-2.979,0.751-5.272,1.902-6.995c1.149-1.725,2.681-2.87,4.192-3.625c3.026-1.508,5.98-1.501,6.03-1.504h73.886
		c0.004,0,0.008,0,0.011,0c2.974,0,5.263,0.752,6.984,1.902c1.725,1.149,2.871,2.681,3.626,4.192c1.507,3.026,1.5,5.98,1.503,6.03
		v24.025c0.001,0.833-0.058,1.612-0.167,2.34c-0.197,1.31-0.56,2.454-1.043,3.448c-0.209,0.43-0.44,0.832-0.691,1.208
		c-1.15,1.724-2.682,2.87-4.193,3.625c-3.025,1.507-5.979,1.5-6.03,1.504h-73.886C-18.902,301.923-18.905,301.923-18.909,301.923
		 M-29.812,289.798l0.001,0.059l0.008,0.195c0.009,0.172,0.027,0.425,0.063,0.74c0.073,0.63,0.219,1.508,0.51,2.477
		c0.584,1.945,1.738,4.234,4.008,5.745c1.517,1.009,3.544,1.697,6.324,1.699h73.886l0.059-0.001l0.195-0.008
		c0.172-0.009,0.425-0.027,0.74-0.063c0.63-0.073,1.507-0.219,2.477-0.51c1.945-0.584,4.234-1.739,5.745-4.009
		c1.009-1.516,1.697-3.543,1.698-6.324v-24.025l-0.001-0.059l-0.007-0.194c-0.009-0.172-0.027-0.426-0.064-0.741
		c-0.072-0.63-0.218-1.507-0.509-2.477c-0.584-1.945-1.739-4.233-4.009-5.745c-1.516-1.009-3.544-1.696-6.324-1.698h-73.886
		l-0.059,0.001l-0.194,0.008c-0.172,0.009-0.426,0.027-0.74,0.063c-0.631,0.073-1.508,0.219-2.478,0.51
		c-1.945,0.584-4.233,1.738-5.745,4.008c-1.009,1.516-1.696,3.544-1.698,6.324V289.798"/>
	<path fill="#A59368" d="M-6.32,297.397c-1.843,0-3.283-0.469-4.368-1.194c-1.089-0.726-1.81-1.692-2.282-2.637
		c-0.942-1.894-0.935-3.717-0.938-3.768v-25.012c-0.002-1.848,0.468-3.292,1.194-4.379c0.726-1.088,1.692-1.81,2.637-2.282
		c1.895-0.942,3.717-0.935,3.768-0.938v0.605v0.605l-0.03,0.001l-0.112,0.004c-0.1,0.005-0.249,0.016-0.434,0.037
		c-0.372,0.043-0.891,0.13-1.463,0.301c-1.15,0.345-2.484,1.023-3.359,2.338c-0.585,0.88-0.989,2.059-0.991,3.708v25.012l0.001,0.03
		l0.004,0.112c0.005,0.1,0.016,0.249,0.037,0.435c0.043,0.371,0.13,0.89,0.301,1.462c0.345,1.15,1.023,2.484,2.338,3.359
		c0.88,0.585,2.059,0.989,3.708,0.991h43.772h0.03l0.111-0.005c0.101-0.005,0.249-0.015,0.435-0.037
		c0.372-0.043,0.891-0.129,1.463-0.301c1.149-0.345,2.484-1.022,3.359-2.338c0.584-0.88,0.989-2.059,0.991-3.708v-25.012
		l-0.001-0.03l-0.004-0.112c-0.006-0.1-0.016-0.249-0.037-0.434c-0.043-0.372-0.13-0.891-0.302-1.463
		c-0.345-1.15-1.022-2.484-2.337-3.359c-0.88-0.584-2.059-0.989-3.708-0.991H-6.309v-0.605v-0.605h43.772c0.003,0,0.006,0,0.009,0
		c1.844,0,3.284,0.469,4.37,1.194c1.088,0.726,1.81,1.692,2.282,2.637c0.942,1.895,0.935,3.717,0.938,3.768v25.012
		c0.001,1.848-0.468,3.292-1.195,4.379c-0.725,1.089-1.691,1.81-2.637,2.282c-1.894,0.942-3.717,0.935-3.767,0.938H-6.309
		C-6.313,297.397-6.316,297.397-6.32,297.397"/>
	<path fill="#A59368" d="M56.223,281.518L56.223,281.518L56.223,281.518L56.223,281.518 M56.223,281.518
		c-2.152-0.001-3.896-1.745-3.897-3.897c0.001-2.152,1.745-3.896,3.897-3.896c2.151,0,3.895,1.744,3.896,3.896
		C60.118,279.773,58.374,281.517,56.223,281.518v-0.605v-0.605c1.483-0.003,2.683-1.203,2.686-2.687
		c-0.003-1.483-1.203-2.683-2.686-2.686c-1.484,0.003-2.684,1.203-2.687,2.686c0.003,1.484,1.203,2.684,2.687,2.687v0.605V281.518
		L56.223,281.518"/>
	<polyline fill="#A59368" points="61.056,307.188 55.429,307.188 55.429,306.666 54.219,306.666 54.219,307.188 49.258,307.188 
		49.258,306.666 48.048,306.666 48.048,307.188 43.087,307.188 43.087,306.666 41.877,306.666 41.877,307.188 36.916,307.188 
		36.916,306.666 35.706,306.666 35.706,307.188 30.745,307.188 30.745,306.666 29.535,306.666 29.535,307.188 24.574,307.188 
		24.574,306.666 23.364,306.666 23.364,307.188 18.403,307.188 18.403,306.666 17.193,306.666 17.193,307.188 12.233,307.188 
		12.233,306.666 11.023,306.666 11.023,307.188 6.062,307.188 6.062,306.666 4.852,306.666 4.852,307.188 -0.109,307.188 
		-0.109,306.666 -1.319,306.666 -1.319,307.188 -6.28,307.188 -6.28,306.666 -7.49,306.666 -7.49,307.188 -12.451,307.188 
		-12.451,306.666 -13.661,306.666 -13.661,307.188 -18.622,307.188 -18.622,306.666 -19.832,306.666 -19.832,307.188 
		-24.966,307.188 -24.966,306.633 -25.645,306.633 -25.645,305.978 61.406,305.978 61.406,306.428 61.056,306.428 61.056,307.188 	
		"/>
	<path fill="#A59368" d="M61.056,312.866h-5.627v-1.21h5.627V312.866 M54.219,312.866h-4.961v-1.21h4.961V312.866 M48.048,312.866
		h-4.961v-1.21h4.961V312.866 M41.877,312.866h-4.961v-1.21h4.961V312.866 M35.706,312.866h-4.961v-1.21h4.961V312.866
		 M29.535,312.866h-4.961v-1.21h4.961V312.866 M23.364,312.866h-4.961v-1.21h4.961V312.866 M17.193,312.866h-4.96v-1.21h4.96
		V312.866 M11.023,312.866H6.062v-1.21h4.961V312.866 M4.852,312.866h-4.961v-1.21h4.961V312.866 M-1.319,312.866H-6.28v-1.21h4.961
		V312.866 M-7.49,312.866h-4.961v-1.21h4.961V312.866 M-13.661,312.866h-4.961v-1.21h4.961V312.866 M-19.832,312.866h-5.134v-1.21
		h5.134V312.866"/>
	<path fill="#A59368" d="M-16.859,324.006c-2.127,0-3.809-0.523-5.104-1.324c-1.298-0.802-2.2-1.87-2.82-2.923
		c-1.238-2.11-1.385-4.161-1.391-4.212l-0.002-0.022v-8.892h0.531h0.679v0.555v4.468v1.21v2.608l0.002,0.019l0.015,0.128
		c0.014,0.115,0.039,0.284,0.08,0.496c0.079,0.412,0.219,0.985,0.458,1.619v1.054h0.473c0.546,1.037,1.371,2.097,2.611,2.862
		c0.441,0.272,0.936,0.509,1.495,0.696v1.103h1.21v-0.801c0.54,0.094,1.129,0.146,1.773,0.146h3.188v0.655h1.21v-0.655h4.961v0.655
		h1.21v-0.655h4.961v0.655h1.21v-0.655h4.961v0.655h1.21v-0.655h4.961v0.655h1.21v-0.655h4.96v0.655h1.21v-0.655h4.961v0.655h1.21
		v-0.655h4.961v0.655h1.21v-0.655h4.961v0.655h1.21v-0.655h4.961v0.655h1.21v-0.655h4.961v0.655h1.21v-0.655h3.662l0.031-0.002
		l0.144-0.013c0.128-0.012,0.318-0.035,0.554-0.073c0.168-0.027,0.36-0.062,0.57-0.106v0.849h1.21v-1.175
		c0.026-0.008,0.052-0.017,0.078-0.026c1.459-0.489,3.171-1.4,4.291-3.055c0.088-0.13,0.172-0.265,0.253-0.405h0.532v-1.153
		c0.296-0.831,0.472-1.805,0.473-2.957v-1.814v-1.21v-4.468v-0.76h0.35h0.86v8.252c0.002,2.174-0.579,3.889-1.467,5.194
		c-0.886,1.307-2.062,2.199-3.217,2.806c-2.314,1.211-4.564,1.32-4.612,1.325l-0.015,0.001h-69.804
		C-16.852,324.006-16.855,324.006-16.859,324.006"/>
	<path fill="#A59368" d="M60.583,318.79h-0.532h-4.622v-1.21h5.154v0.057V318.79 M54.219,318.79h-4.961v-1.21h4.961V318.79
		 M48.048,318.79h-4.961v-1.21h4.961V318.79 M41.877,318.79h-4.961v-1.21h4.961V318.79 M35.706,318.79h-4.961v-1.21h4.961V318.79
		 M29.535,318.79h-4.961v-1.21h4.961V318.79 M23.364,318.79h-4.961v-1.21h4.961V318.79 M17.193,318.79h-4.96v-1.21h4.96V318.79
		 M11.023,318.79H6.062v-1.21h4.961V318.79 M4.852,318.79h-4.961v-1.21h4.961V318.79 M-1.319,318.79H-6.28v-1.21h4.961V318.79
		 M-7.49,318.79h-4.961v-1.21h4.961V318.79 M-13.661,318.79h-4.961v-1.21h4.961V318.79 M-19.832,318.79h-4.106h-0.473v-1.054v-0.156
		h4.579V318.79"/>
	<polyline fill="#A59368" points="6.062,323.451 4.852,323.451 4.852,322.796 4.852,318.79 4.852,317.58 4.852,312.866 
		4.852,311.656 4.852,307.188 4.852,306.666 6.062,306.666 6.062,307.188 6.062,311.656 6.062,312.866 6.062,317.58 6.062,318.79 
		6.062,322.796 6.062,323.451 	"/>
	<polyline fill="#A59368" points="12.233,323.451 11.023,323.451 11.023,322.796 11.023,318.79 11.023,317.58 11.023,312.866 
		11.023,311.656 11.023,307.188 11.023,306.666 12.233,306.666 12.233,307.188 12.233,311.656 12.233,312.866 12.233,317.58 
		12.233,318.79 12.233,322.796 12.233,323.451 	"/>
	<polyline fill="#A59368" points="18.403,323.451 17.193,323.451 17.193,322.796 17.193,318.79 17.193,317.58 17.193,312.866 
		17.193,311.656 17.193,307.188 17.193,306.666 18.403,306.666 18.403,307.188 18.403,311.656 18.403,312.866 18.403,317.58 
		18.403,318.79 18.403,322.796 18.403,323.451 	"/>
	<polyline fill="#A59368" points="24.574,323.451 23.364,323.451 23.364,322.796 23.364,318.79 23.364,317.58 23.364,312.866 
		23.364,311.656 23.364,307.188 23.364,306.666 24.574,306.666 24.574,307.188 24.574,311.656 24.574,312.866 24.574,317.58 
		24.574,318.79 24.574,322.796 24.574,323.451 	"/>
	<polyline fill="#A59368" points="30.745,323.451 29.535,323.451 29.535,322.796 29.535,318.79 29.535,317.58 29.535,312.866 
		29.535,311.656 29.535,307.188 29.535,306.666 30.745,306.666 30.745,307.188 30.745,311.656 30.745,312.866 30.745,317.58 
		30.745,318.79 30.745,322.796 30.745,323.451 	"/>
	<polyline fill="#A59368" points="36.916,323.451 35.706,323.451 35.706,322.796 35.706,318.79 35.706,317.58 35.706,312.866 
		35.706,311.656 35.706,307.188 35.706,306.666 36.916,306.666 36.916,307.188 36.916,311.656 36.916,312.866 36.916,317.58 
		36.916,318.79 36.916,322.796 36.916,323.451 	"/>
	<polyline fill="#A59368" points="43.087,323.451 41.877,323.451 41.877,322.796 41.877,318.79 41.877,317.58 41.877,312.866 
		41.877,311.656 41.877,307.188 41.877,306.666 43.087,306.666 43.087,307.188 43.087,311.656 43.087,312.866 43.087,317.58 
		43.087,318.79 43.087,322.796 43.087,323.451 	"/>
	<polyline fill="#A59368" points="49.258,323.451 48.048,323.451 48.048,322.796 48.048,318.79 48.048,317.58 48.048,312.866 
		48.048,311.656 48.048,307.188 48.048,306.666 49.258,306.666 49.258,307.188 49.258,311.656 49.258,312.866 49.258,317.58 
		49.258,318.79 49.258,322.796 49.258,323.451 	"/>
	<polyline fill="#A59368" points="55.429,323.451 54.219,323.451 54.219,322.602 54.219,318.79 54.219,317.58 54.219,312.866 
		54.219,311.656 54.219,307.188 54.219,306.666 55.429,306.666 55.429,307.188 55.429,311.656 55.429,312.866 55.429,317.58 
		55.429,318.79 55.429,322.276 55.429,323.451 	"/>
	<path fill="#0095A8" d="M248.904,150.377c-2.974,0-5.263-0.751-6.984-1.901c-1.725-1.15-2.871-2.682-3.626-4.193
		c-1.507-3.025-1.5-5.979-1.503-6.03l0,0l0,0v-24.025c-0.001-0.833,0.058-1.612,0.167-2.339c0.156,0.983,0.457,2.277,1.043,3.625
		v22.739l0.001,0.059l0.007,0.195c0.009,0.172,0.027,0.425,0.063,0.74c0.073,0.63,0.219,1.507,0.51,2.477
		c0.584,1.945,1.739,4.234,4.009,5.745c1.516,1.009,3.544,1.697,6.324,1.698h73.886l0.058-0.001l0.195-0.007
		c0.172-0.009,0.426-0.027,0.741-0.063c0.629-0.073,1.507-0.219,2.477-0.51c1.945-0.584,4.233-1.739,5.745-4.009
		c1.009-1.516,1.696-3.544,1.698-6.324v-22.352c0.483-0.994,0.845-2.138,1.042-3.448c0.167,1.054,0.166,1.751,0.168,1.775v24.025
		c0.002,2.98-0.751,5.272-1.902,6.995c-1.149,1.725-2.681,2.871-4.192,3.626c-3.026,1.507-5.98,1.5-6.03,1.503h-73.886
		C248.911,150.377,248.907,150.377,248.904,150.377"/>
	<path fill="#00B6B2" d="M322.801,121.028h-73.886c-2.78-0.002-4.808-0.689-6.324-1.698c-2.27-1.512-3.425-3.8-4.009-5.745
		c-0.291-0.97-0.437-1.847-0.51-2.477c-0.036-0.315-0.054-0.569-0.063-0.74l-0.007-0.195l-0.001-0.059V86.089
		c0.001-2.78,0.689-4.808,1.698-6.324c1.511-2.27,3.8-3.425,5.745-4.008c0.97-0.291,1.847-0.438,2.477-0.51
		c0.315-0.037,0.568-0.055,0.74-0.064l0.195-0.007l0.059-0.001h73.886c2.78,0.001,4.807,0.689,6.324,1.698
		c2.27,1.511,3.424,3.8,4.008,5.745c0.291,0.97,0.437,1.847,0.51,2.477c0.036,0.315,0.054,0.568,0.063,0.74l0.008,0.195l0.001,0.059
		v24.025c-0.002,2.78-0.689,4.808-1.698,6.324c-1.512,2.27-3.8,3.425-5.745,4.008c-0.97,0.291-1.848,0.438-2.477,0.51
		c-0.315,0.037-0.569,0.054-0.741,0.063l-0.195,0.008L322.801,121.028 M261.503,77.503c-0.05,0.003-1.873-0.004-3.767,0.938
		c-0.945,0.472-1.912,1.193-2.637,2.282c-0.727,1.087-1.196,2.53-1.194,4.378v25.013c0.003,0.05-0.004,1.873,0.938,3.768
		c0.472,0.945,1.193,1.911,2.281,2.636c1.086,0.726,2.527,1.195,4.37,1.195c0.003,0,0.006,0,0.009,0h43.772
		c0.051-0.004,1.874,0.004,3.768-0.938c0.945-0.472,1.912-1.194,2.637-2.282c0.726-1.087,1.196-2.531,1.194-4.379V85.101
		c-0.003-0.05,0.004-1.873-0.938-3.767c-0.472-0.945-1.193-1.912-2.282-2.637c-1.085-0.725-2.526-1.194-4.369-1.194
		c-0.003,0-0.006,0-0.01,0H261.503v0.605v0.605h43.772c1.649,0.001,2.828,0.406,3.708,0.991c1.316,0.875,1.993,2.209,2.338,3.358
		c0.172,0.572,0.258,1.092,0.301,1.463c0.022,0.186,0.032,0.335,0.037,0.435l0.005,0.112v0.029v25.013
		c-0.001,1.649-0.406,2.828-0.991,3.708c-0.875,1.315-2.209,1.993-3.359,2.338c-0.572,0.171-1.091,0.258-1.462,0.301
		c-0.186,0.021-0.335,0.032-0.435,0.037l-0.112,0.004l-0.03,0.001h-43.772c-1.648-0.002-2.828-0.407-3.707-0.991
		c-1.316-0.875-1.993-2.209-2.338-3.359c-0.172-0.572-0.259-1.091-0.301-1.463c-0.022-0.186-0.032-0.334-0.037-0.434l-0.005-0.112
		v-0.03V85.101c0.001-1.648,0.406-2.827,0.991-3.707c0.875-1.316,2.209-1.993,3.358-2.338c0.572-0.172,1.092-0.258,1.463-0.301
		c0.186-0.022,0.335-0.032,0.435-0.038l0.112-0.004h0.029v-0.605V77.503 M324.035,101.833L324.035,101.833
		c2.152,0,3.896-1.744,3.896-3.896s-1.744-3.896-3.896-3.896s-3.896,1.744-3.896,3.896S321.883,101.833,324.035,101.833
		 M324.035,101.833v-0.605v-0.605c-1.483-0.003-2.683-1.203-2.686-2.686c0.003-1.483,1.203-2.684,2.686-2.686
		c1.483,0.002,2.684,1.203,2.686,2.686c-0.002,1.483-1.203,2.683-2.686,2.686v0.605V101.833L324.035,101.833"/>
	<path fill="#0095A8" d="M248.904,122.238c-2.974,0-5.263-0.752-6.984-1.901c-1.725-1.15-2.871-2.682-3.626-4.193
		c-0.105-0.211-0.202-0.421-0.293-0.63c-0.586-1.348-0.887-2.642-1.043-3.625c-0.167-1.054-0.166-1.751-0.167-1.775l0,0l0,0V86.089
		c-0.002-2.98,0.75-5.272,1.901-6.995c1.15-1.725,2.682-2.871,4.193-3.625c3.025-1.508,5.979-1.501,6.03-1.504h73.886
		c0.004,0,0.007,0,0.011,0c2.974,0,5.263,0.752,6.984,1.901c1.725,1.15,2.87,2.682,3.625,4.193c1.508,3.025,1.501,5.979,1.504,6.03
		v24.025c0,0.833-0.058,1.612-0.168,2.339c-0.197,1.31-0.559,2.454-1.042,3.448c-0.209,0.431-0.441,0.833-0.692,1.208
		c-1.149,1.725-2.681,2.87-4.192,3.625c-3.026,1.508-5.98,1.501-6.03,1.504h-73.886
		C248.911,122.238,248.907,122.238,248.904,122.238 M238.001,110.114l0.001,0.059l0.007,0.195c0.009,0.171,0.027,0.425,0.063,0.74
		c0.073,0.63,0.219,1.507,0.51,2.477c0.584,1.945,1.739,4.233,4.009,5.745c1.516,1.009,3.544,1.696,6.324,1.698h73.886l0.058-0.001
		l0.195-0.008c0.172-0.009,0.426-0.026,0.741-0.063c0.629-0.072,1.507-0.219,2.477-0.51c1.945-0.583,4.233-1.738,5.745-4.008
		c1.009-1.516,1.696-3.544,1.698-6.324V86.089l-0.001-0.059l-0.008-0.195c-0.009-0.172-0.027-0.425-0.063-0.74
		c-0.073-0.63-0.219-1.507-0.51-2.477c-0.584-1.945-1.738-4.234-4.008-5.745c-1.517-1.009-3.544-1.697-6.324-1.698h-73.886
		l-0.059,0.001l-0.195,0.007c-0.172,0.009-0.425,0.027-0.74,0.064c-0.63,0.072-1.507,0.219-2.477,0.51
		c-1.945,0.583-4.234,1.738-5.745,4.008c-1.009,1.516-1.697,3.544-1.698,6.324V110.114"/>
	<path fill="#0095A8" d="M261.494,117.713c-1.843,0-3.284-0.469-4.37-1.195c-1.088-0.725-1.809-1.691-2.281-2.636
		c-0.942-1.895-0.935-3.718-0.938-3.768V85.101c-0.002-1.848,0.467-3.291,1.194-4.378c0.725-1.089,1.692-1.81,2.637-2.282
		c1.894-0.942,3.717-0.935,3.767-0.938v0.605v0.605h-0.029l-0.112,0.004c-0.1,0.006-0.249,0.016-0.435,0.038
		c-0.371,0.043-0.891,0.129-1.463,0.301c-1.149,0.345-2.483,1.022-3.358,2.338c-0.585,0.88-0.99,2.059-0.991,3.707v25.013v0.03
		l0.005,0.112c0.005,0.1,0.015,0.248,0.037,0.434c0.042,0.372,0.129,0.891,0.301,1.463c0.345,1.15,1.022,2.484,2.338,3.359
		c0.879,0.584,2.059,0.989,3.707,0.991h43.772l0.03-0.001l0.112-0.004c0.1-0.005,0.249-0.016,0.435-0.037
		c0.371-0.043,0.89-0.13,1.462-0.301c1.15-0.345,2.484-1.023,3.359-2.338c0.585-0.88,0.99-2.059,0.991-3.708V85.101v-0.029
		l-0.005-0.112c-0.005-0.1-0.015-0.249-0.037-0.435c-0.043-0.371-0.129-0.891-0.301-1.463c-0.345-1.149-1.022-2.483-2.338-3.358
		c-0.88-0.585-2.059-0.99-3.708-0.991h-43.772v-0.605v-0.605h43.772c0.004,0,0.007,0,0.01,0c1.843,0,3.284,0.469,4.369,1.194
		c1.089,0.725,1.81,1.692,2.282,2.637c0.942,1.894,0.935,3.717,0.938,3.767v25.013c0.002,1.848-0.468,3.292-1.194,4.379
		c-0.725,1.088-1.692,1.81-2.637,2.282c-1.894,0.942-3.717,0.934-3.768,0.938h-43.772
		C261.5,117.713,261.497,117.713,261.494,117.713"/>
	<path fill="#0095A8" d="M324.035,101.833L324.035,101.833L324.035,101.833L324.035,101.833 M324.035,101.833
		c-2.152,0-3.896-1.744-3.896-3.896s1.744-3.896,3.896-3.896s3.896,1.744,3.896,3.896S326.187,101.833,324.035,101.833v-0.605
		v-0.605c1.483-0.003,2.684-1.203,2.686-2.686c-0.002-1.483-1.203-2.684-2.686-2.686c-1.483,0.002-2.683,1.203-2.686,2.686
		c0.003,1.483,1.203,2.683,2.686,2.686v0.605V101.833L324.035,101.833"/>
	<polyline fill="#0095A8" points="328.869,127.504 323.241,127.504 323.241,126.981 322.031,126.981 322.031,127.504 
		317.07,127.504 317.07,126.981 315.86,126.981 315.86,127.504 310.899,127.504 310.899,126.981 309.69,126.981 309.69,127.504 
		304.729,127.504 304.729,126.981 303.519,126.981 303.519,127.504 298.558,127.504 298.558,126.981 297.348,126.981 
		297.348,127.504 292.387,127.504 292.387,126.981 291.177,126.981 291.177,127.504 286.216,127.504 286.216,126.981 
		285.006,126.981 285.006,127.504 280.045,127.504 280.045,126.981 278.835,126.981 278.835,127.504 273.874,127.504 
		273.874,126.981 272.664,126.981 272.664,127.504 267.703,127.504 267.703,126.981 266.493,126.981 266.493,127.504 
		261.532,127.504 261.532,126.981 260.322,126.981 260.322,127.504 255.361,127.504 255.361,126.981 254.151,126.981 
		254.151,127.504 249.191,127.504 249.191,126.981 247.981,126.981 247.981,127.504 242.847,127.504 242.847,126.948 
		242.168,126.948 242.168,126.294 329.219,126.294 329.219,126.743 328.869,126.743 328.869,127.504 	"/>
	<path fill="#0095A8" d="M328.869,133.181h-5.628v-1.21h5.628V133.181 M322.031,133.181h-4.961v-1.21h4.961V133.181 M315.86,133.181
		h-4.961v-1.21h4.961V133.181 M309.69,133.181h-4.961v-1.21h4.961V133.181 M303.519,133.181h-4.961v-1.21h4.961V133.181
		 M297.348,133.181h-4.961v-1.21h4.961V133.181 M291.177,133.181h-4.961v-1.21h4.961V133.181 M285.006,133.181h-4.961v-1.21h4.961
		V133.181 M278.835,133.181h-4.961v-1.21h4.961V133.181 M272.664,133.181h-4.961v-1.21h4.961V133.181 M266.493,133.181h-4.961v-1.21
		h4.961V133.181 M260.322,133.181h-4.961v-1.21h4.961V133.181 M254.151,133.181h-4.96v-1.21h4.96V133.181 M247.981,133.181h-5.134
		v-1.21h5.134V133.181"/>
	<path fill="#0095A8" d="M250.954,144.322c-2.127,0-3.809-0.524-5.104-1.325c-1.298-0.801-2.2-1.87-2.82-2.923
		c-1.238-2.109-1.385-4.16-1.392-4.211l-0.001-0.023v-8.892h0.531h0.679v0.556v4.467v1.21v2.611l0.001,0.016l0.015,0.129
		c0.015,0.114,0.04,0.284,0.08,0.495c0.08,0.413,0.22,0.985,0.459,1.619v1.054h0.473c0.546,1.037,1.371,2.098,2.611,2.863
		c0.44,0.271,0.935,0.508,1.495,0.695v1.103h1.21v-0.8c0.539,0.094,1.128,0.145,1.772,0.146h3.188v0.654h1.21v-0.654h4.961v0.654
		h1.21v-0.654h4.961v0.654h1.21v-0.654h4.961v0.654h1.21v-0.654h4.961v0.654h1.21v-0.654h4.961v0.654h1.21v-0.654h4.961v0.654h1.21
		v-0.654h4.961v0.654h1.21v-0.654h4.961v0.654h1.21v-0.654h4.961v0.654h1.209v-0.654h4.961v0.654h1.21v-0.654h3.663l0.03-0.002
		l0.145-0.013c0.128-0.013,0.317-0.035,0.553-0.073c0.168-0.027,0.36-0.062,0.57-0.107v0.849h1.21v-1.174
		c0.026-0.009,0.052-0.017,0.078-0.026c1.459-0.489,3.172-1.4,4.291-3.056c0.088-0.13,0.173-0.265,0.254-0.405h0.532v-1.153
		c0.296-0.831,0.472-1.805,0.473-2.957v-1.814v-1.21v-4.467v-0.761h0.35h0.86v8.252c0.002,2.175-0.58,3.889-1.467,5.194
		c-0.887,1.307-2.062,2.2-3.218,2.806c-2.314,1.212-4.563,1.321-4.611,1.326l-0.016,0.001h-69.804
		C250.96,144.322,250.957,144.322,250.954,144.322"/>
	<path fill="#0095A8" d="M328.396,139.105h-0.532h-4.623v-1.21h5.155v0.057V139.105 M322.031,139.105h-4.961v-1.21h4.961V139.105
		 M315.86,139.105h-4.961v-1.21h4.961V139.105 M309.69,139.105h-4.961v-1.21h4.961V139.105 M303.519,139.105h-4.961v-1.21h4.961
		V139.105 M297.348,139.105h-4.961v-1.21h4.961V139.105 M291.177,139.105h-4.961v-1.21h4.961V139.105 M285.006,139.105h-4.961v-1.21
		h4.961V139.105 M278.835,139.105h-4.961v-1.21h4.961V139.105 M272.664,139.105h-4.961v-1.21h4.961V139.105 M266.493,139.105h-4.961
		v-1.21h4.961V139.105 M260.322,139.105h-4.961v-1.21h4.961V139.105 M254.151,139.105h-4.96v-1.21h4.96V139.105 M247.981,139.105
		h-4.106h-0.473v-1.054v-0.156h4.579V139.105"/>
	<polyline fill="#0095A8" points="249.191,143.766 247.981,143.766 247.981,142.663 247.981,139.105 247.981,137.895 
		247.981,133.181 247.981,131.971 247.981,127.504 247.981,126.981 249.191,126.981 249.191,127.504 249.191,131.971 
		249.191,133.181 249.191,137.895 249.191,139.105 249.191,142.966 249.191,143.766 	"/>
	<polyline fill="#0095A8" points="255.361,143.766 254.151,143.766 254.151,143.112 254.151,139.105 254.151,137.895 
		254.151,133.181 254.151,131.971 254.151,127.504 254.151,126.981 255.361,126.981 255.361,127.504 255.361,131.971 
		255.361,133.181 255.361,137.895 255.361,139.105 255.361,143.112 255.361,143.766 	"/>
	<polyline fill="#0095A8" points="261.532,143.766 260.322,143.766 260.322,143.112 260.322,139.105 260.322,137.895 
		260.322,133.181 260.322,131.971 260.322,127.504 260.322,126.981 261.532,126.981 261.532,127.504 261.532,131.971 
		261.532,133.181 261.532,137.895 261.532,139.105 261.532,143.112 261.532,143.766 	"/>
	<polyline fill="#0095A8" points="267.703,143.766 266.493,143.766 266.493,143.112 266.493,139.105 266.493,137.895 
		266.493,133.181 266.493,131.971 266.493,127.504 266.493,126.981 267.703,126.981 267.703,127.504 267.703,131.971 
		267.703,133.181 267.703,137.895 267.703,139.105 267.703,143.112 267.703,143.766 	"/>
	<polyline fill="#0095A8" points="273.874,143.766 272.664,143.766 272.664,143.112 272.664,139.105 272.664,137.895 
		272.664,133.181 272.664,131.971 272.664,127.504 272.664,126.981 273.874,126.981 273.874,127.504 273.874,131.971 
		273.874,133.181 273.874,137.895 273.874,139.105 273.874,143.112 273.874,143.766 	"/>
	<polyline fill="#0095A8" points="280.045,143.766 278.835,143.766 278.835,143.112 278.835,139.105 278.835,137.895 
		278.835,133.181 278.835,131.971 278.835,127.504 278.835,126.981 280.045,126.981 280.045,127.504 280.045,131.971 
		280.045,133.181 280.045,137.895 280.045,139.105 280.045,143.112 280.045,143.766 	"/>
	<polyline fill="#0095A8" points="286.216,143.766 285.006,143.766 285.006,143.112 285.006,139.105 285.006,137.895 
		285.006,133.181 285.006,131.971 285.006,127.504 285.006,126.981 286.216,126.981 286.216,127.504 286.216,131.971 
		286.216,133.181 286.216,137.895 286.216,139.105 286.216,143.112 286.216,143.766 	"/>
	<polyline fill="#0095A8" points="292.387,143.766 291.177,143.766 291.177,143.112 291.177,139.105 291.177,137.895 
		291.177,133.181 291.177,131.971 291.177,127.504 291.177,126.981 292.387,126.981 292.387,127.504 292.387,131.971 
		292.387,133.181 292.387,137.895 292.387,139.105 292.387,143.112 292.387,143.766 	"/>
	<polyline fill="#0095A8" points="298.558,143.766 297.348,143.766 297.348,143.112 297.348,139.105 297.348,137.895 
		297.348,133.181 297.348,131.971 297.348,127.504 297.348,126.981 298.558,126.981 298.558,127.504 298.558,131.971 
		298.558,133.181 298.558,137.895 298.558,139.105 298.558,143.112 298.558,143.766 	"/>
	<polyline fill="#0095A8" points="304.729,143.766 303.519,143.766 303.519,143.112 303.519,139.105 303.519,137.895 
		303.519,133.181 303.519,131.971 303.519,127.504 303.519,126.981 304.729,126.981 304.729,127.504 304.729,131.971 
		304.729,133.181 304.729,137.895 304.729,139.105 304.729,143.112 304.729,143.766 	"/>
	<polyline fill="#0095A8" points="310.899,143.766 309.69,143.766 309.69,143.112 309.69,139.105 309.69,137.895 309.69,133.181 
		309.69,131.971 309.69,127.504 309.69,126.981 310.899,126.981 310.899,127.504 310.899,131.971 310.899,133.181 310.899,137.895 
		310.899,139.105 310.899,143.112 310.899,143.766 	"/>
	<polyline fill="#0095A8" points="317.07,143.766 315.86,143.766 315.86,143.112 315.86,139.105 315.86,137.895 315.86,133.181 
		315.86,131.971 315.86,127.504 315.86,126.981 317.07,126.981 317.07,127.504 317.07,131.971 317.07,133.181 317.07,137.895 
		317.07,139.105 317.07,143.112 317.07,143.766 	"/>
	<polyline fill="#0095A8" points="323.241,143.766 322.031,143.766 322.031,142.917 322.031,139.105 322.031,137.895 
		322.031,133.181 322.031,131.971 322.031,127.504 322.031,126.981 323.241,126.981 323.241,127.504 323.241,131.971 
		323.241,133.181 323.241,137.895 323.241,139.105 323.241,142.592 323.241,143.766 	"/>
	<path fill="#0095A8" d="M357.325,236.279c-0.445,0-0.835-0.12-1.132-0.32c-0.301-0.2-0.498-0.466-0.62-0.712
		c-0.242-0.494-0.235-0.917-0.238-0.968v-1.672c-0.002-0.449,0.117-0.842,0.319-1.142c0.201-0.301,0.467-0.497,0.713-0.619
		c0.494-0.242,0.917-0.235,0.968-0.238h17.349v-4.227h-35.117c-0.003,0-0.006,0-0.01,0c-1.49,0-2.666-0.381-3.553-0.973
		c-0.89-0.592-1.479-1.381-1.863-2.149c-0.765-1.54-0.758-3.009-0.761-3.059v-55.623c-0.002-1.493,0.379-2.671,0.974-3.559
		c0.593-0.889,1.383-1.477,2.151-1.861c1.542-0.765,3.011-0.758,3.062-0.761h81.492c0.004,0,0.007,0,0.011,0
		c1.489,0,2.665,0.381,3.551,0.973c0.89,0.592,1.479,1.382,1.863,2.15c0.766,1.539,0.758,3.008,0.762,3.058V220.2l0,0
		c0.001,1.494-0.38,2.671-0.974,3.559c-0.593,0.889-1.383,1.478-2.152,1.861c-1.541,0.765-3.011,0.758-3.061,0.761h-33.443v4.227
		h16.419c0.003,0,0.007,0,0.01,0c0.444,0,0.834,0.119,1.132,0.319c0.301,0.2,0.498,0.467,0.62,0.712
		c0.242,0.494,0.235,0.917,0.238,0.968v1.672c0.002,0.449-0.118,0.843-0.32,1.142c-0.2,0.301-0.467,0.498-0.712,0.62
		c-0.495,0.242-0.918,0.234-0.968,0.238h-46.7C357.331,236.279,357.328,236.279,357.325,236.279 M356.544,234.273l0.001,0.01
		l0.005,0.056l0.042,0.208c0.05,0.165,0.137,0.318,0.271,0.405c0.093,0.06,0.223,0.115,0.472,0.117h46.694l0.009-0.001l0.056-0.005
		l0.209-0.042c0.165-0.05,0.318-0.137,0.406-0.271c0.06-0.093,0.115-0.222,0.116-0.471v-1.671v-0.004l-0.005-0.057l-0.043-0.207
		c-0.049-0.166-0.136-0.318-0.271-0.406c-0.092-0.06-0.222-0.115-0.471-0.116h-17.629v-6.647h34.653l0.021-0.001l0.086-0.003
		c0.077-0.004,0.193-0.012,0.339-0.029c0.291-0.033,0.698-0.101,1.146-0.236c0.902-0.27,1.938-0.798,2.614-1.814
		c0.452-0.681,0.769-1.594,0.771-2.888l0,0v-55.623l-0.001-0.02l-0.003-0.086c-0.004-0.077-0.012-0.193-0.029-0.339
		c-0.034-0.29-0.102-0.697-0.236-1.145c-0.271-0.9-0.799-1.935-1.817-2.611c-0.681-0.452-1.595-0.768-2.891-0.77h-81.492
		l-0.021,0.001l-0.086,0.003c-0.078,0.004-0.194,0.012-0.339,0.029c-0.291,0.033-0.699,0.102-1.147,0.236
		c-0.901,0.27-1.937,0.798-2.614,1.814c-0.452,0.681-0.768,1.594-0.77,2.888V220.2v0.02l0.004,0.086
		c0.004,0.078,0.012,0.194,0.029,0.339c0.033,0.29,0.101,0.697,0.235,1.145c0.271,0.9,0.8,1.935,1.817,2.611
		c0.681,0.452,1.596,0.768,2.892,0.77h36.327v6.647h-18.553h-0.009l-0.057,0.005l-0.208,0.043c-0.165,0.049-0.319,0.136-0.406,0.27
		c-0.06,0.093-0.115,0.222-0.117,0.471V234.273 M357.341,231.818L357.341,231.818"/>
	<path fill="#0095A8" d="M423.32,216.463h-84.706V163.02v-0.605h84.706V216.463 M339.824,163.625v51.628h82.286v-51.628H339.824
		 M339.219,163.02v0.605V163.02"/>
	<path fill="#FFFFFF" d="M93.251,242.718h-1.889v-65.263h1.889v13.601h0.188c2.456-8.5,9.54-14.734,19.456-14.734
		c12.845,0,20.685,10.672,20.685,25.311c0,13.602-7.273,25.502-20.685,25.502c-10.294,0-17.188-5.951-19.456-14.735h-0.188V242.718
		L93.251,242.718z M131.691,201.633c0-12.466-6.234-23.422-18.796-23.422c-12.466,0-19.644,10.862-19.644,23.422
		c0,15.018,7.839,23.612,19.644,23.612C126.213,225.245,131.691,212.873,131.691,201.633L131.691,201.633z"/>
	<path fill="#FFFFFF" d="M141.139,202.106c0.189,13.033,5.384,23.139,19.173,23.139c10.012,0,17.379-5.572,18.984-16.055h1.889
		c-1.323,11.144-9.634,17.945-20.684,17.945c-15.017,0.189-21.25-10.957-21.25-25.406c0-16.151,10.294-25.407,21.25-25.407
		c15.112,0,21.817,12.467,21.251,25.784H141.139L141.139,202.106z M179.862,200.217c0.096-11.9-6.611-22.006-19.171-22.006
		c-10.485,0-18.89,8.406-19.552,22.006H179.862L179.862,200.217z"/>
	<path fill="#FFFFFF" d="M189.313,177.455h1.889v11.995h0.188c1.795-7.461,7.934-13.128,17.473-13.128
		c10.106,0,17.284,6.234,17.284,17.473v32.206h-1.889v-31.923c0-11.239-7.178-15.867-15.395-15.867
		c-11.616,0-17.661,9.539-17.661,20.306v27.484h-1.889V177.455L189.313,177.455z"/>
	<polygon fill="#E31937" points="235.161,178.238 272.086,178.238 272.086,190.48 249.876,190.48 249.876,196.434 268.942,196.434 
		268.942,207.806 249.876,207.806 249.876,226.001 235.161,226.001 235.161,178.238 	"/>
	<polygon fill="#E31937" points="277.298,178.238 292.014,178.238 292.014,213.759 313.153,213.759 313.153,226.001 
		277.298,226.001 277.298,178.238 	"/>
	<path fill="#FFFFFF" d="M63.701,176.322c14.167,0,21.818,12.184,21.818,25.407c0,13.316-7.651,25.406-21.913,25.406
		c-14.167,0-21.816-12.09-21.816-25.406C41.79,188.506,49.439,176.322,63.701,176.322L63.701,176.322z M63.701,225.245
		c12.939,0,19.928-11.239,19.928-23.516c0-12.09-6.989-23.518-19.928-23.518c-13.128,0-20.022,11.428-20.022,23.518
		C43.679,214.006,50.573,225.245,63.701,225.245L63.701,225.245z"/>
	<polygon fill="#00B6B2" points="59.568,169.7 59.568,235.779 67.612,235.779 67.612,169.7 59.568,169.7 	"/>
	<path fill="#6BC9C7" d="M117.414,88.499c-5.343,0-9.409-1.345-12.462-3.382c-3.058-2.038-5.091-4.755-6.439-7.45
		c-2.692-5.395-2.685-10.718-2.688-10.768V19.707c-0.002-5.349,1.343-9.418,3.382-12.474c2.038-3.057,4.754-5.091,7.45-6.438
		c5.394-2.692,10.718-2.685,10.768-2.688v0.6v0.6l-0.119,0.002c-0.083,0.002-0.208,0.006-0.369,0.015
		c-0.323,0.017-0.795,0.05-1.381,0.118c-1.172,0.135-2.799,0.406-4.603,0.948c-3.612,1.084-7.902,3.239-10.747,7.51
		c-1.899,2.85-3.179,6.657-3.181,11.808v47.192l0.002,0.119c0.002,0.083,0.006,0.207,0.015,0.369
		c0.016,0.323,0.05,0.795,0.117,1.381c0.136,1.172,0.407,2.799,0.948,4.603c1.084,3.612,3.239,7.902,7.51,10.747
		c2.851,1.899,6.657,3.179,11.808,3.181h2.045l0.119-0.002c0.083-0.002,0.207-0.007,0.369-0.015c0.323-0.017,0.795-0.05,1.381-0.118
		c1.172-0.135,2.799-0.406,4.603-0.947c3.612-1.084,7.902-3.239,10.747-7.51c1.899-2.851,3.179-6.657,3.181-11.808V19.707
		l-0.002-0.119c-0.002-0.083-0.006-0.208-0.015-0.369c-0.016-0.324-0.05-0.795-0.118-1.381c-0.135-1.172-0.406-2.8-0.947-4.603
		c-1.084-3.612-3.239-7.902-7.51-10.748c-2.851-1.898-6.657-3.179-11.808-3.181h-2.045v-0.6v-0.6h2.045c0.003,0,0.006,0,0.009,0
		c5.344,0,9.41,1.344,12.464,3.382c3.057,2.038,5.091,4.754,6.438,7.45c2.693,5.395,2.685,10.719,2.689,10.769v47.192
		c0.002,5.349-1.343,9.417-3.382,12.473c-2.038,3.057-4.755,5.091-7.45,6.438c-5.395,2.693-10.718,2.686-10.768,2.689h-2.045
		C117.421,88.499,117.418,88.499,117.414,88.499"/>
	<path fill="#6BC9C7" d="M136.002,64.666h-35.109V11.539v-0.6h35.109V64.666 M102.093,12.14v51.326h32.709V12.14H102.093
		 M101.493,11.539v0.6V11.539"/>
	<path fill="#6BC9C7" d="M118.448,78.225L118.448,78.225L118.448,78.225L118.448,78.225 M118.448,78.225
		c-1.696,0-3.069-1.374-3.07-3.069c0.001-1.696,1.374-3.069,3.07-3.07c1.695,0.001,3.068,1.374,3.069,3.07
		C121.516,76.851,120.143,78.225,118.448,78.225v-0.6v-0.6c1.032-0.002,1.867-0.837,1.869-1.869
		c-0.002-1.032-0.837-1.868-1.869-1.87c-1.033,0.002-1.868,0.838-1.87,1.87c0.002,1.032,0.837,1.867,1.87,1.869v0.6V78.225
		L118.448,78.225"/>
	<polyline fill="#6BC9C7" points="124.068,6.036 112.826,6.036 112.826,4.836 124.068,4.836 124.068,6.036 	"/>
</g>
</svg>
